<?xml version="1.0" encoding="UTF-8" standalone="no"?>
<svg
   xmlns:dc="http://purl.org/dc/elements/1.1/"
   xmlns:cc="http://creativecommons.org/ns#"
   xmlns:rdf="http://www.w3.org/1999/02/22-rdf-syntax-ns#"
   xmlns:svg="http://www.w3.org/2000/svg"
   xmlns="http://www.w3.org/2000/svg"
   xmlns:sodipodi="http://sodipodi.sourceforge.net/DTD/sodipodi-0.dtd"
   xmlns:inkscape="http://www.inkscape.org/namespaces/inkscape"
   width="681"
   height="650"
   id="svg2"
   version="1.1"
   inkscape:version="0.91 r13725"
   sodipodi:docname="horse-311783.svg">
  <metadata
     id="metadata12">
    <rdf:RDF>
      <cc:Work
         rdf:about="">
        <dc:format>image/svg+xml</dc:format>
        <dc:type
           rdf:resource="http://purl.org/dc/dcmitype/StillImage" />
        <dc:title></dc:title>
      </cc:Work>
    </rdf:RDF>
  </metadata>
  <defs
     id="defs10" />
  <sodipodi:namedview
     pagecolor="#ffffff"
     bordercolor="#666666"
     borderopacity="1"
     objecttolerance="10"
     gridtolerance="10"
     guidetolerance="10"
     inkscape:pageopacity="0"
     inkscape:pageshadow="2"
     inkscape:window-width="1013"
     inkscape:window-height="570"
     id="namedview8"
     showgrid="false"
     inkscape:zoom="0.4546875"
     inkscape:cx="320"
     inkscape:cy="240"
     inkscape:window-x="182"
     inkscape:window-y="44"
     inkscape:window-maximized="0"
     inkscape:current-layer="svg2" />
  <g
     id="g1372"
     transform="translate(0,170)">
    <g
       id="g2190"
       transform="matrix(3.249,0,0,3.1954,-708.51,-52.195)"
       style="fill-rule:evenodd" />
  </g>
  <g
     id="Ebene_1"
     style="fill:#000000"
     transform="translate(6.5979381,0.65292)">
    <path
       id="path1364"
       d="m 215.22,71.783 c -2.2914,1.1647 -6.0834,0.86963 -8.7151,0.29782 -1.1687,-2.0399 -4.3448,-3.473 -5.2044,-5.8037 -2.0478,-1.4513 -4.3686,-0.86262 -5.8218,-1.1759 0,-2.2956 4.0496,-0.57039 3.7739,-2.5935 3.792,-0.58305 7.2522,-1.7421 11.039,-2.904 l -0.571,-0.3189 2.5966,0 c -0.27564,0 -0.27564,0 -0.54858,0.31892 2.0254,0.86401 3.1802,1.7238 4.3337,2.904 1.1898,3.199 0.86768,6.3811 -0.88208,9.2753 m -61.892,26.14 c -1.183,0.59708 -2.0703,1.1534 -2.3404,1.4527 l -5.8148,0 c 1.4517,-1.1534 2.6317,-2.3364 3.4996,-4.3524 0.55981,-1.7477 -1.477,-3.4716 -2.048,-5.8164 -1.4517,-0.26695 -2.899,-1.1534 -4.9287,-0.26695 -0.31641,-1.7435 2.9115,-0.29221 2.5895,-2.3378 2.0424,-0.29643 4.6798,-0.29643 6.9725,0 l -0.27014,0 c -0.57117,1.7238 3.1732,1.1534 2.6246,2.6047 1.1703,1.1647 1.7357,2.9152 1.4418,4.9284 0.29394,1.7688 -0.89319,2.3392 -1.726,3.7877 z m 518.94,101.08 c 2.0395,-4.3847 -2.0283,-7.8563 -3.477,-11.052 -4.9512,-5.5143 -10.766,-8.9858 -15.717,-13.636 -4.0734,0.28098 -5.2297,-3.1962 -8.1188,-3.7905 0,0.29782 0.28137,0.89212 -0.29254,1.159 3.1816,2.0371 6.6812,4.9524 9.8882,7.5599 1.4235,3.4856 4.6586,3.7905 5.2212,6.6678 0.86084,2.0399 2.017,5.2361 0.2926,7.2873 -0.85522,-0.5943 -2.906,-0.3161 -2.906,-1.7463 -4.3604,-0.30487 -6.9878,-1.4878 -11.067,0 -2.3068,1.7463 -3.4686,5.5115 -2.9059,8.4112 -0.27008,3.7638 4.3829,4.6278 2.9059,8.7189 0,1.1534 -1.7385,1.7238 -1.1365,2.3308 -2.0395,1.7238 -5.8373,0.86261 -8.7207,0.5704 -0.60767,-2.04 -3.7865,-1.1773 -5.8373,-1.7477 -0.59076,-0.57044 0.88617,-0.29224 0,-0.86264 -6.67,-1.4822 -13.379,-4.3819 -20.325,-6.3994 l 0.5627,-0.5704 c -4.6473,0 -9.0134,-2.04 -13.374,-3.2158 -7.8346,-1.1422 -15.402,-0.86401 -23.554,-0.28098 -4.0594,0.88648 -8.7264,2.3209 -11.914,5.2207 -7.5729,7.2859 -11.908,16.27 -16.868,24.416 -2.017,0.29364 -1.159,3.7652 -3.4939,2.904 1.1618,-4.6503 5.8148,-9.0322 5.8148,-14.23 0.59076,-3.1934 -1.1365,-7.5514 -2.6134,-9.5914 -4.3379,-3.1934 -7.2438,-8.7189 -11.334,-12.203 -3.7752,-1.7238 -7.2692,-4.3342 -10.743,-6.3769 0,0 0.29822,-0.30487 0.5683,-0.30487 -0.88617,-0.55637 -2.0452,-0.8598 -2.906,-0.28943 -0.27008,2.0132 2.906,0.5943 2.6359,2.637 0.86078,0 1.4319,0.55917 2.2927,0.55917 4.0847,4.6362 7.8599,7.8563 11.632,12.48 -1.159,0.86401 1.1787,2.0399 0.61047,2.6342 1.1365,4.9172 -0.61047,9.2781 -4.0903,12.484 -3.2014,3.1695 -7.2692,5.5115 -10.445,8.9844 -11.632,13.948 -4.9568,31.942 -0.29822,47.075 4.3435,12.772 11.632,26.394 11.036,39.168 -1.747,7.8408 0.2757,16.867 -5.8091,23.517 -2.9059,0.30487 -2.9059,3.2074 -5.2268,3.2074 l 0.5683,0.5971 c -1.747,0.86682 -5.5138,0 -5.2269,2.0146 l -14.828,0.3034 c -4.0903,-2.0245 -6.6699,-2.6342 -10.772,-4.3552 0.30396,-0.30347 0.30396,-0.30347 0.59644,-0.30347 -7.5645,-4.6601 -13.385,-10.455 -19.194,-15.092 l 0.2953,-0.3161 c -3.7696,-2.9025 -6.9935,-6.3839 -10.769,-8.7133 l 0.301,-0.2627 -2.9144,-1.1534 0.301,-0.3049 c -5.5447,-2.0427 -9.8882,-7.5514 -16.288,-9.0083 l -7.559,-1.1534 0.2926,0 c -8.1588,-0.58585 -16.88,-4.0574 -24.721,-5.2221 0,-0.11099 0.16461,-0.11099 0.32764,-0.11099 -2.0156,-1.2757 -4.7471,-0.80222 -6.7037,-1.6396 0.2926,0 0.2926,-0.29221 0.5683,-0.29221 -1.7526,-1.1759 -4.3548,-0.5676 -6.383,-1.4457 0.2995,-0.29926 0.57526,-0.29926 0.85651,-0.29926 -1.7413,-0.56195 -3.47,-1.152 -5.5095,-1.4456 0.0816,0 0.1294,-0.052 0.19958,-0.0758 -4.2899,-0.69125 -5.3098,-3.3957 -10.081,-3.3957 l 0.2926,-0.3161 c -6.106,-2.5864 -12.237,-4.337 -17.74,-6.6663 l 0.2982,-0.5746 c -1.183,-0.57883 -2.9116,0 -4.0902,-1.4695 l 0.2924,-0.274 c -2.9058,-0.29364 -4.9342,-2.904 -7.2664,-2.904 l 0.5684,-0.5971 c -5.2213,-1.721 -10.473,-5.4974 -14.242,-8.1078 l 0.2926,-0.3048 -2.3379,-1.4569 0.3165,-0.2641 c -0.88464,-1.1815 -3.4926,-0.29221 -2.9074,-2.0428 l 0.3053,0 c -2.9131,-1.4695 -4.6656,-3.1906 -7.2974,-4.3721 0.29394,-0.27536 0,-0.87244 0.29394,-1.1422 -4.0918,-3.7877 -9.2862,-6.1058 -12.489,-10.478 -1.1577,-4.625 0.56262,-10.729 3.7738,-13.912 2.5994,-2.04 4.9469,-4.9411 7.5278,-6.0974 l -0.2672,-0.3133 c 4.6572,-0.57037 6.6996,-2.5991 11.364,-3.1808 l 0,-0.29221 2.287,-0.8612 c 0.87756,-2.04 -2.287,-0.59708 -1.7471,-2.637 -3.7512,-2.0132 -6.9736,-2.8773 -11.015,-4.3314 l 0,-0.31613 -3.7922,-1.7238 c 0.26587,-0.86401 -1.4529,-1.4583 -1.1604,-2.3448 1.1604,-0.86401 2.9032,-0.55914 4.0636,-0.26694 3.7922,2.04 8.1526,3.4716 12.22,3.7638 5.5208,-1.4456 10.151,-0.29224 15.097,-2.016 2.9075,1.7238 8.1694,1.7238 11.341,0.86401 1.7753,-0.57181 -0.86218,-1.4583 -0.86218,-2.3448 -2.3096,-1.1296 -4.3602,-3.1695 -6.6981,-4.6517 l 0.3221,-0.2655 c -3.7977,-2.6342 -8.4281,-1.7477 -12.226,-2.6342 0,0 0,-0.26694 0.27014,-0.26694 -1.4305,-1.1675 -3.7682,-0.59711 -5.4984,-1.4569 -0.31494,-1.1801 -3.7905,-2.904 -5.2379,-3.4744 0.87769,-1.1773 -2.3208,-0.6055 -1.4545,-2.623 0.87915,-0.8865 2.6134,-0.5704 3.7865,-0.2782 2.3208,1.4316 6.3887,1.7238 9.5872,2.6118 2.6149,-1.7505 7.2678,-0.3161 9.0205,-2.6118 8.1284,-0.60831 17.154,0.57181 24.68,-0.88648 1.19,-2.3069 -2.5796,-3.1934 -3.7625,-4.0532 -1.4305,-0.30487 -3.4701,0 -4.3379,-1.1689 l 0.27,-0.3189 c -2.6077,-0.8598 -4.9581,-2.0132 -7.2677,-3.1667 0.14075,-0.28098 0.27576,-0.3161 0.41077,-0.3161 -6.2002,-0.13486 -11.886,-2.8646 -17.851,-2.5865 -1.7242,-1.1661 -4.3602,-3.206 -6.4067,-5.2193 0.29394,-0.8865 -0.56836,-1.1801 0.58081,-1.4836 2.9187,-0.26694 6.3887,0.30347 9.0245,-0.55634 l 0.5992,-1.1914 c 4.0609,-0.55914 8.7194,0 12.189,-1.419 -1.453,-0.86685 -2.9074,-2.342 -4.6528,-2.6089 0.2926,-0.29785 0.2926,-0.29785 0.2926,-0.5943 -4.3605,0.29645 -6.974,-2.3378 -11.064,-2.3378 -0.27014,-2.0175 -4.0621,-0.86121 -4.3379,-3.7638 1.7583,-2.0231 6.6869,-0.88791 9.8812,-0.88791 0,0.31613 -1.4531,0 -0.2926,0.31613 5.5209,1.1591 10.174,0.86401 15.108,-1.7463 0.87927,-1.1534 3.7865,-0.58304 3.7865,-2.3336 8.1582,-1.7238 15.408,4.3791 22.992,0.86401 -0.2995,0 -0.61609,0 -0.61609,-0.27255 l 2.6262,-1.1618 c 0.59784,-1.1534 0,-1.1534 0,-2.6019 -6.3887,0 -13.07,-6.9726 -18.596,-5.5382 -4.9525,-2.6104 -11.921,-0.56479 -17.436,-2.04 0,-1.7294 -4.6641,-0.86966 -6.4111,-2.0217 l 0.5923,-0.5718 c -3.2058,-0.3161 -5.5448,-2.3294 -7.5662,-4.0771 5.5209,-0.86826 11.908,0.58865 18.034,-0.29785 5.2268,-1.7477 10.163,-2.6118 14.832,-4.6517 7.2438,-0.27115 13.644,0.32312 21.217,-0.5704 -0.59216,-1.7238 2.045,-0.85419 2.9059,-1.7238 -0.8609,-0.88089 1.747,-0.88089 0.85657,-2.3294 -2.9017,-0.29926 -6.3999,-2.047 -9.009,-2.6117 l 0.2996,-0.2922 c -3.2112,-1.183 -5.819,-3.4716 -8.7208,-3.2046 l 0.287,-0.2669 c -7.5604,0.26694 -15.419,1.1534 -22.668,0.56477 -4.6487,-1.7435 -9.3127,-4.3609 -13.381,-7.2606 1.7527,-1.7477 2.6134,-2.6286 4.3435,-3.4982 0.61475,-2.9012 -3.7809,-1.7238 -4.0678,-4.0532 5.819,-1.4527 11.058,-2.3209 16.579,-4.3524 0,-1.4583 3.5051,-1.7337 2.9072,-2.6174 5.2508,-1.7505 11.634,0.27254 16.287,-1.7505 4.3548,-0.26553 6.4056,-1.4485 9.6111,-4.053196 0.27576,-4.3524 -5.819,-2.0231 -8.7264,-3.199 -6.1059,-3.4744 -13.672,-5.2446 -20.653,-4.6278 -5.2395,2.2886 -11.938,1.4288 -18.028,1.1534 -2.3081,-2.3294 -5.8134,-1.1534 -8.1285,-3.494 0.5697,-1.4527 2.9131,-2.0343 3.2057,-2.904 5.2042,-2.6047 10.738,-3.4715 15.402,-5.5115 -0.30383,-0.29224 -2.0507,-1.4752 -1.1604,-1.1591 -3.5037,-1.7449 -6.7037,-1.7449 -9.9093,-3.2257 -5.5151,-0.85419 -11.915,-0.27257 -17.436,-1.1296 l 0.2926,-0.295 -4.0988,-1.1534 c 0.32776,-1.1801 2.3701,0 2.9158,-1.1801 0,0 -0.54565,0.29362 -0.54565,0 3.4517,-0.86684 7.5365,-0.86684 11.334,-1.1647 7.2439,-2.0076 13.064,-7.5514 19.757,-7.8437 4.0679,2.04 7.8416,-0.56477 11.904,-0.56477 0.61475,-1.4499 3.2282,-2.6089 2.906,-4.6489 l -7.5364,0 c -0.87354,-2.3434 -4.9525,-0.86824 -6.9977,-2.0217 0,-0.32173 0.31641,-0.32173 0.61462,-0.32173 -1.7752,-1.7252 -4.9512,0 -5.5433,-2.29 l -8.1343,-0.8865 c 0,0 0.27441,-0.29503 0.56836,-0.29503 -14.242,-3.199 -28.48,-0.56477 -42.432,-1.1534 0,-1.4513 2.0255,-1.7505 2.3237,-2.6103 4.6572,-2.6342 9.6027,-3.1934 14.531,-4.9439 l -0.2898,-0.2964 4.0819,-1.152 -0.879,-0.5718 2.9045,-1.1787 c 0.58936,-0.86121 1.7499,-2.9012 2.0424,-4.0658 -0.29248,-0.26974 -0.88208,0 -1.1548,-0.26974 -0.88757,0.56478 -0.88757,0.86401 -0.88757,1.4344 -3.7682,-0.86963 -7.2946,-1.7294 -11.039,-1.7294 -0.58923,-2.0399 -4.3574,-0.58866 -5.2451,-2.6103 -7.8389,-1.4752 -16.852,0.27115 -24.141,-0.29925 4.3816,-3.782 11.057,-4.0799 14.266,-8.4056 -7.5659,0.85419 -16.024,-0.29926 -24.428,-1.1858 0.30518,-0.29223 0.57251,-0.29223 0.87073,-0.29223 -2.0184,0 -4.366,-1.1591 -6.3816,0.58445 -0.61621,8.4183 -3.5193,15.408 -4.3676,24.118 1.1577,0 1.7301,0.5704 2.5911,0.86402 -0.56555,0.29503 0,0.29503 -0.56555,0.56477 2.9019,-0.26974 2.6078,2.6342 4.9497,2.9054 3.4757,3.199 7.2439,6.6677 10.763,9.8906 3.4517,4.9228 7.8331,9.8695 11.334,15.092 4.9286,7.255 8.4071,14.523 11.926,22.656996 9.5913,22.642 6.6783,51.097 2.6176,76.664 -2.9102,17.694 -8.4281,34.558 -13.091,51.982 -0.88196,0.29221 -1.453,1.1534 -2.3348,0.57037 0.56531,-2.6103 -2.9103,-2.8885 -2.3379,-5.2207 -4.6627,-4.0658 0.31665,-10.441 0.8877,-15.384 6.9708,-25.839 16.281,-55.474 12.216,-81.318 -0.59778,-2.3308 0.29675,-4.3763 -0.31653,-5.8051 -2.906,-12.474 -5.2042,-22.957996 -11.634,-33.690996 -3.4517,-8.7049 -11.012,-14.812 -15.372,-22.074 -3.7976,-2.3125 -5.8162,-5.5115 -9.0427,-8.4211 -3.4757,-0.28941 -4.6558,-4.0771 -7.8362,-4.6475 0.27576,0 0.27576,-0.29362 0.59228,-0.29362 -2.906,-1.7238 -6.4056,-3.4702 -9.3129,-5.5101 0.26709,-1.1534 2.0254,-0.59428 2.9072,-0.59428 4.653,-0.55917 3.7922,-5.7812 6.0891,-8.7077 0.88745,-10.734 4.3871,-22.941 4.0847,-32.805 -3.7682,7.5514 -5.8162,18.308 -13.652,23.23 -2.0662,3.4926 -5.5179,3.199 -7.2607,5.5326 l 0.2659,0.2711 c -2.3151,0.59428 -2.906,2.3392 -5.5209,3.199 -2.6049,2.6117 -1.7257,7.8507 -5.8132,7.5346 -2.3419,-2.0132 0.56824,-6.9628 1.1843,-9.5745 1.7257,-4.0588 6.6714,-3.7638 9.8839,-6.3797 l 0,-0.29082 3.7655,-1.4513 c 0.5907,-0.58866 0.88184,-1.1591 1.1632,-2.0132 l -8.1412,-1.1857 c 0,0 0.30518,-0.29222 0.57239,-0.29222 -4.0649,-0.56759 -8.9936,-0.86121 -13.36,-0.27255 0.30383,0.857 -0.88623,0.857 -1.1731,0.857 -5.2268,2.6174 -5.5234,9.8695 -6.3816,13.64 -4.0706,0.88088 -8.1552,3.199 -12.502,4.9495 l 0.2728,0.2894 c -3.1787,0.29784 -4.3575,2.6103 -7.5603,2.9096 l 0.2968,0.2838 -4.3646,1.4401 c 0.28137,0 0.58948,0 0.58948,0.31611 -6.1299,2.8997 -11.624,5.4876 -17.145,8.1218 l 0.2758,0.2669 -4.3463,1.4752 0.2784,0.2978 -3.1859,1.4485 0.2814,0.2992 c -3.4784,1.4246 -7.2692,2.6047 -9.6168,4.9228 l 0.3278,0.2753 -3.498,1.1759 0.2657,0.2993 c -3.7682,2.0315 -8.9965,4.9341 -11.9,6.9628 -5.2227,2.8941 -10.468,3.4884 -15.702,4.9411 l 0.3053,0.2711 c -3.2084,-0.56476 -3.7976,2.904 -6.7108,3.199 -1.1476,1.4527 -3.1731,3.4744 -3.785,5.5213 -6.3831,7.2789 0.31641,15.695996 -2.9074,22.951996 -0.27295,2.904 4.3843,1.1352 5.2394,2.6047 7.0034,1.1647 13.682,0 20.647,1.1647 0,0 -0.2898,0.26694 -0.58374,0.26694 l 6.6812,0.3161 c 2.3335,0.57037 1.1548,2.0231 1.4684,3.4744 -6.3999,2.6286 -11.624,5.8149 -17.758,8.1457 0.31641,0 0.61328,0 0.88184,0.29785 -2.311,0.85559 -4.3336,1.426 -6.3816,2.2886 -1.1548,2.04 2.9031,1.4752 2.048,3.2173 2.6133,0.86963 1.7314,1.7238 4.3336,2.5934 -0.26856,0 -0.26856,0.31613 -0.56543,0.31613 0.56543,1.1591 2.0424,0.56195 3.2029,1.4541 -0.2926,0.27536 -0.61487,0.27536 -0.88208,0.27536 0.88208,0.85422 2.9047,0.28381 3.1748,2.0315 4.6613,2.0456 9.9064,1.1619 14.859,-0.29642 -0.32214,-1.4513 1.4276,-0.88089 2.3094,-1.4513 l -0.2672,-0.2838 c 2.0255,-1.1675 2.9047,-2.9152 5.5236,-3.4743 l -0.3278,-0.295 c 3.2296,-2.047 6.7039,-4.3552 10.206,-6.3755 6.1073,-2.6286 13.06,-2.9026 19.194,-4.3848 3.2028,2.3392 6.3816,5.8107 9.5619,7.8563 4.3799,-0.29504 5.262,2.3322 9.6084,1.7238 5.5347,-0.86685 11.628,-2.2942 16.556,-5.1954 l -0.2755,-0.2979 c 3.1844,-0.88089 4.3604,-4.0869 7.2704,-4.6517 l -0.2994,-0.295 c 3.5024,-2.3153 4.3843,-7.2564 8.4576,-7.5542 1.4502,2.0456 -0.89441,4.3552 -2.0492,5.8037 -1.4769,2.3448 -4.0665,4.6517 -6.109,7.5599 -3.4756,3.199 -6.1073,4.0602 -9.0146,6.3755 -3.4742,0 -4.951,3.2046 -8.4294,3.2046 0.2926,0 0.88184,0 0.88184,0.28381 -2.6079,0.89352 -6.134,0.29926 -8.4254,1.7477 -2.6373,0.29785 -4.387,0.86264 -5.5405,2.904 -5.2282,5.8094 -12.194,10.756 -16.562,17.136 -13.67,14.805 -22.684,32.826 -33.746,49.958 -1.7499,2.3055 -4.3394,4.3342 -6.9541,6.6664 -2.6317,3.7877 -6.106,6.7028 -8.7207,10.757 -3.7922,3.4744 -4.9485,9.0083 -7.2693,13.928 -3.2267,-2.0427 -6.134,-5.2249 -9.6096,-6.9712 0,0 0.29944,-0.29364 0.57239,-0.29364 -2.0255,-1.152 -3.7696,-2.3294 -5.1987,-3.1892 l 0.26868,0 -2.6304,-1.7281 0.3138,-0.3133 c -3.2324,-0.28098 -1.4769,-2.0273 -4.6602,-2.9152 -6.3999,-6.6635 -12.489,-14.509 -18.031,-22.047 -0.56824,-4.0799 -2.9059,-7.5514 -4.0663,-11.315 -1.1577,-0.30487 -2.3153,-2.0442 -2.3153,-3.2116 -3.0242,-0.54373 -2.4531,-2.6216 -5.366,-2.8534 -7.2412,3.6795 -16.485,0 -22.276,7.2171 -1.4332,4.6489 -4.6556,8.1233 -6.6812,13.368 -4.6333,6.3755 -12.513,12.179 -16.261,18.843 -4.0911,2.6342 -4.9757,5.5382 -8.7235,8.1457 l 0.296,0.2936 c -3.5221,2.9152 -6.7015,5.8178 -10.195,8.7161 -6.7045,3.185 -6.9773,12.204 -8.7264,17.702 0.59155,4.3721 1.4741,6.1226 2.3385,10.748 2.3181,8.1485 -3.2239,14.809 -7.2881,20.324 -3.7682,2.342 -8.1082,4.3735 -12.199,4.3735 0.56628,0 0.29968,0.5676 0.29968,0.8598 3.4926,0 6.6952,0 9.6027,1.1661 0.86438,1.1521 1.4297,3.4828 1.7258,4.9397 -1.4536,4.3609 -1.4536,11.609 -2.6112,16.537 l 1.4304,0.8893 c -0.27283,0.27536 -0.54504,0.5676 -0.54504,0.86401 5.816,1.1478 12.175,0.26978 17.444,-0.29642 0.54492,-1.4569 4.0642,-0.85983 5.2014,-1.4569 2.6374,-1.4583 6.1327,-2.3069 9.3354,-3.4716 -0.29529,-1.7322 3.7717,-1.4569 3.4525,-2.904 4.9757,-3.7862 4.0875,-11.929 5.544,-17.127 l -18.332,-0.6083 c 0.88757,-1.4232 -1.1372,-2.5879 0,-4.0574 4.0671,-1.4288 9.0402,-2.6104 13.675,-4.0392 0.58936,-3.5123 0.85876,-7.5571 3.7718,-9.5942 1.7667,-3.7877 6.1298,-5.2221 9.3325,-7.8212 3.1831,-1.1885 -0.88477,-4.3777 0,-6.7028 -1.4735,-1.44 -1.7492,-3.494 -2.6338,-5.2207 -2.6345,-2.3308 -4.0679,-4.6489 -7.2705,-5.8009 -0.2926,-2.0371 2.0459,-3.4954 2.9074,-5.5143 8.4275,-8.1429 17.151,-14.811 24.444,-23.226 0.54028,-0.61673 1.4277,-0.88648 2.2886,-0.61673 3.2295,-0.86404 2.3419,1.7702 4.684,2.6342 2.6106,4.6503 7.2662,7.8563 9.2861,11.62 3.2056,5.8009 7.5421,10.454 8.7235,16.255 4.0875,6.9726 3.4756,13.927 6.1088,21.203 0.59497,1.44 1.7498,2.3294 2.0438,3.7877 3.1843,2.3069 8.9922,4.9172 13.382,6.3629 4.3391,-0.56198 4.9285,3.2018 8.9906,2.342 0.27869,-6.398 -2.3124,-13.949 -0.2699,-21.501 1.1548,-2.3251 2.0255,-5.5143 3.4517,-8.4182 1.1815,-0.86124 1.747,0 2.6346,0.56195 -3.179,9.5886 -0.56555,18.61 1.1603,27.607 -0.57104,3.4715 1.7498,5.5143 2.0227,8.7161 -4.6361,3.4659 -9.2693,1.1534 -14.222,1.1534 0.57092,-0.58023 1.1603,-0.29926 1.744,-0.29926 -5.2394,-0.56195 -9.597,-2.3349 -14.848,-3.1962 0.31641,0 0.31641,-0.29221 0.6062,-0.29221 -8.718,-0.26276 -15.142,-7.2354 -23.549,-8.4112 l 0.5682,-0.2936 c -3.1816,-0.56757 -6.3844,-1.7505 -9.2889,0 0.29394,0 0.83838,-0.28098 0.83838,0.29364 -5.1987,1.4681 -6.6517,9.0083 -8.7207,13.352 -6.3621,8.1485 1.7496,15.412 2.069,23.228 0.56555,3.7905 2.3152,7.5725 2.3152,10.734 1.1576,14.528 1.4334,29.655 3.4982,43.88 1.1576,3.1962 4.6333,5.2207 5.494,8.3944 2.6388,0.3161 4.3816,2.9026 6.9752,2.9026 -0.27002,0.3161 -0.27002,0.3161 -0.54565,0.3161 1.1548,0.87808 2.9074,0.28098 3.7682,1.721 l -0.31653,0 c 2.6345,0.59708 3.7949,2.623 6.4294,3.2088 l -0.2953,0.2922 c 2.0422,1.7449 3.7709,2.5991 5.4968,4.6475 0.88757,2.3182 0.61047,4.9411 2.0663,6.967 0.84119,4.9172 1.4529,9.295 0.2926,14.787 2.0254,1.2054 1.7257,-2.0146 3.1858,-2.283 l -0.2812,-0.3049 c 1.1688,-1.4639 3.1844,-0.58585 4.6444,-0.58585 2.6079,3.4898 6.1032,5.8079 9.2863,8.9915 0.88196,1.4639 2.0424,2.904 2.9074,4.6362 1.1605,0.30484 3.5193,0.89069 4.3801,-0.53812 1.1604,-1.4639 2.3181,-2.904 3.4784,-4.6713 4.9287,-11.907 12.495,-26.998 4.3815,-38.892 -2.6317,-1.7688 -3.5192,-4.6714 -5.8119,-5.7953 -3.2028,7.5037 -6.701,11.883 -9.6084,19.434 -1.4768,0 -3.2028,-0.31613 -4.3801,-0.88934 0.88477,-6.9318 4.3801,-13.628 7.2875,-19.752 -2.3236,0 -4.6571,0 -6.4027,-1.1703 -0.57092,-1.1239 -1.7314,-2.3068 -2.6106,-3.442 -1.7356,-7.0007 0,-12.492 1.7258,-20.641 -0.54834,-0.56195 -2.2982,0.31613 -2.0253,-1.1591 l -10.45,-1.1464 c 0.84119,-0.28098 1.7285,-0.28098 2.5909,-0.28098 l -6.6728,0 c 0.28967,0 0.8551,0 1.1772,0.28098 -3.2282,-0.28098 -6.1354,1.7435 -8.4322,0.26834 -1.7443,-11.04 -1.7443,-22.08 -2.0438,-32.808 6.6812,-2.3054 13.381,2.342 20.36,3.7877 -0.32788,0.27536 -0.59778,0.5676 -0.87622,0.5676 l 4.0734,1.1745 -0.6204,0.562 c 2.9186,0.3049 3.8033,2.623 6.7094,2.9152 l -0.8875,0.8669 c 1.4768,0.29221 2.913,0.29221 4.0847,0.85416 l -0.8582,0.8893 c 1.1576,0.3161 2.5911,0.3161 3.4729,1.1591 l -0.5654,0.5746 c 2.5867,0 3.4742,2.6216 5.8106,2.6216 l -0.5892,0.562 3.183,1.4864 -0.5458,0.5508 c 3.4518,-0.55075 2.9045,2.9152 6.089,2.6103 l -0.571,0.8907 c 1.1605,0.26834 2.3153,0.26834 3.4757,1.1591 -0.27856,0 -0.27856,0.30347 -0.57117,0.30347 4.6376,2.3308 9.5675,4.3552 13.95,7.2592 4.6543,1.1478 9.6097,2.8913 14.538,4.9172 3.4952,0.29221 8.1257,1.4752 11.334,0 0.88184,-2.0259 2.9074,-3.4533 3.7865,-5.2221 6.1156,-9.0027 6.3816,-19.446 6.9794,-29.336 0.57104,0.59146 1.7498,-0.86542 2.3096,0.28659 2.6429,11.911 -0.55981,24.132 -1.1548,36.039 3.1762,0.26974 3.1762,3.1849 6.4055,3.1849 l -0.5894,0.5732 c 0.88611,0.57458 2.9103,0.57458 2.9103,1.7561 l 3.4952,1.4176 -0.3164,0.3034 2.9044,1.183 -0.8677,0.8781 c 1.1898,0.28098 2.6443,0.28098 3.7808,0.84296 -0.87073,0.30487 -0.28137,0.59708 -0.28137,0.86682 1.1633,0 1.7526,0.87808 2.9074,1.1942 l -0.5835,0.281 c 3.2026,2.6342 6.9891,2.6342 9.5857,5.2094 l -0.27576,0 c 3.4954,0.86682 6.3999,3.5011 9.6111,5.2446 l -0.29944,0 4.0648,1.4288 -0.5892,0.5858 4.0621,1.1815 -0.5654,0.5971 c 1.4263,0.26974 2.9032,0.26974 3.7682,1.4288 l -0.2926,0 c 0.86365,0.88931 2.6401,0.88931 3.7683,1.1478 l -0.2731,1.1703 c 3.7922,-1.1703 4.0736,2.8913 7.8588,2.5991 0,0 -0.28699,0.29224 -0.61487,0.29224 5.8163,2.623 12.814,5.2459 18.332,6.405 l -0.2657,0.5844 c 7.8388,0.29364 16.555,4.9172 23.528,7.2353 6.1058,-0.26831 8.7208,2.6342 14.537,2.6342 0,0 -0.26721,0.26974 -0.26721,0.57462 6.6728,1.1703 12.762,2.3294 19.188,2.9026 0,0.29361 -1.1815,0 -0.61462,0.29361 3.7977,1.1703 8.1511,0.57321 11.949,1.4513 l -0.322,0.3161 c 10.198,-0.3161 18.626,3.1849 28.805,3.1849 -0.2981,0 -0.2981,0.26837 -0.5921,0.26837 l 3.2,1.1478 c 1.1843,9.0378 1.4543,17.151 2.6148,25.862 1.1829,3.1849 2.0451,6.9544 2.906,9.8695 3.207,2.6343 -1.7231,3.2201 -0.2926,5.8065 -1.4305,-0.56195 -2.0212,-2.9025 -3.1817,-3.7806 -2.0465,-4.063 -2.9018,-6.9782 -5.2465,-10.42 -2.0396,-5.5255 -4.0664,-11.064 -4.9511,-16.578 -0.27564,-4.0616 -6.6755,-1.721 -9.8756,-2.9026 0.58667,-0.30487 1.4769,-0.30487 2.0396,-0.30487 l -17.149,-1.1239 c 0,-0.21072 0.22363,-0.28098 0.45715,-0.3161 -4.3364,-1.1703 -9.5211,-0.87808 -13.538,-1.7323 0.27283,-0.26974 0.58923,0 0.87903,0 -1.7427,-0.86682 -3.5136,-1.159 -5.5349,-0.86682 3.7922,11.017 8.1498,22.946 15.124,32.535 4.6586,4.344 8.7208,9.5646 12.5,13.933 2.5964,-0.29364 1.4487,2.6104 3.7865,2.2942 2.3153,5.2446 8.7207,8.1486 10.742,13.944 0.29407,12.809 2.0466,22.959 -1.723,35.744 -9.6111,11.602 -16.879,26.132 -27.053,35.731 -3.7738,3.7343 -8.4479,5.8065 -12.494,9.5422 -6.4266,4.0854 -9.8784,12.21 -15.429,17.139 -4.923,2.0372 -11.352,4.6714 -16.841,4.6714 -0.32776,1.4288 1.7441,1.7336 1.7441,2.9039 0.2926,8.9803 -7.5659,16.813 -8.4309,25.839 2.3038,0.29218 4.3406,2.5864 7.2466,1.721 5.8176,2.3406 13.656,1.1815 20.354,0.86542 3.2028,-2.0245 6.9949,0.3161 9.5858,-2.2942 6.4224,-2.9039 10.49,-9.3188 12.519,-15.992 -0.57532,-0.30481 -1.7471,-0.57458 -1.1605,-0.84296 -5.5419,0 -11.358,-2.061 -16.281,-2.3658 -0.57251,-1.4274 0,-3.7582 0.58228,-5.5016 6.1102,-1.4288 14.538,2.0723 19.191,-2.0498 l -0.3165,-0.2683 c 2.6373,-2.0146 4.0903,-5.2109 7.566,-5.8079 l -0.2758,-0.2922 c 5.5209,-1.4639 11.634,-4.0391 16.855,-4.0391 l 0,-0.3161 4.3604,-0.5732 c 0.5697,-4.0869 0.5697,-10.174 -2.3376,-13.077 -0.56836,-1.7562 -2.9019,-2.623 -2.297,-4.6489 7.5421,-9.5759 14.54,-21.202 24.116,-28.437 3.4813,-2.3069 7.573,-3.2088 10.479,-4.9411 4.9356,-3.1849 10.151,-5.8192 13.644,-9.3076 0.57526,-1.745 4.1029,-5.2094 2.3209,-8.1134 -1.1366,-7.2943 -2.6022,-14.811 -3.4686,-22.384 1.1477,-0.29364 2.332,0 2.906,0.88928 -0.30396,0.30487 -0.30396,0.30487 -0.57398,0.30487 4.0552,1.1239 6.957,5.1856 11.023,6.6607 -0.27429,0 -0.27429,0.26971 -0.56818,0.26971 3.1999,0.59711 4.6542,3.7933 7.8536,4.6714 l -0.8609,0.8668 c 1.4348,0.28101 2.6134,0.28101 4.0369,0.86542 -0.26446,0.30487 -0.56262,0.30487 -0.85522,0.30487 5.5447,2.0132 10.468,5.503 16.55,6.6846 -0.26166,0 -0.26166,0.26971 -0.55695,0 1.1786,1.721 4.9482,0.26971 5.5165,2.283 6.6813,7.5515 14.533,15.724 20.64,23.848 2.0509,3.1849 -0.28693,5.5143 -1.1477,8.407 -3.7753,13.347 -10.772,24.679 -17.745,36.012 -7.5618,7.8549 -13.081,13.663 -18.896,22.642 -1.4544,1.4527 -3.1986,3.4898 -5.5194,4.6601 l 0.2672,0.2698 c -6.0826,3.2074 -12.488,6.1114 -18.87,7.5627 1.4291,1.1478 2.6134,3.4772 2.3209,5.2572 -2.0522,7.2353 -4.9526,13.628 -9.2961,18.837 -1.4769,1.4864 -1.1772,2.623 0.2995,3.501 3.1705,0.88934 5.8078,1.7211 9.2891,2.3182 l -0.2925,0.2683 c 8.4394,1.2181 19.469,1.2181 27.908,0 8.4282,-2.5865 13.655,-9.2725 15.993,-17.983 -0.86078,-0.30347 -2.0451,-0.30347 -2.0451,-0.87805 l -10.15,-1.1464 0.27,-0.3161 c -2.6134,-0.86682 -6.383,0 -8.9908,-1.1591 1.1309,-2.0259 1.7217,-4.3328 3.4686,-5.5143 5.8204,0 12.496,-0.28101 17.155,0.29224 3.1929,-4.028 5.539,-7.8325 9.5815,-11.31 3.207,-2.3181 7.2918,-4.0742 10.766,-4.3314 l -0.2615,-0.3287 11.005,-1.1591 c 1.7582,-4.6475 0.61035,-9.5886 -2.5909,-12.491 -0.58508,-1.44 -2.3434,-3.4546 -3.4911,-3.7708 -1.1619,-1.4513 -2.0171,-3.1723 -1.7526,-4.9524 3.2042,-8.6978 6.9681,-16.53 11.07,-25.546 6.0961,-12.75 18.87,-20.324 21.211,-34.842 -0.30102,-4.0266 2.0396,-9.3076 -2.6162,-11.321 -1.4741,-2.0132 -2.9059,-3.1962 -3.7724,-4.3314 -2.906,0 -1.7695,-2.6342 -4.3829,-2.6342 -2.9031,-3.1737 -5.8204,-7.5514 -8.4226,-10.455 -4.0678,-6.9656 -8.7207,-11.907 -12.226,-18.31 -1.747,-1.1366 -3.7696,-2.6118 -4.3378,-3.7708 l -0.3152,-2.0245 c 6.6925,-13.371 16.01,-25.85 22.094,-38.624 6.1186,-13.65 15.132,-33.097 6.9794,-49.64 1.1786,-0.62097 2.3377,-0.62097 2.6331,-1.7674 l 4.6529,0 c 2.0508,3.4884 3.4799,5.2685 5.2269,8.4408 3.207,0.26974 1.7526,2.3069 4.6585,2.623 l -0.8833,0.5493 3.7865,0.5971 c 0.59638,0.87808 -0.88049,0.56198 0,1.1591 1.4516,0.28098 2.9059,0.28098 4.366,1.1478 -0.28693,0 -0.28693,0.29224 -0.56824,0.29224 l 4.3295,1.4752 c -0.28699,0 -0.28699,0.28098 -0.55701,0.28098 l 3.176,1.4527 c -0.26727,0.29221 -0.26727,0.29221 -0.57385,0.29221 0.57385,0.58585 2.9088,1.1591 1.7357,2.0132 4.0847,4.6714 0,12.212 -2.0226,17.726 3.7696,-4.3314 5.5391,-10.759 9.3143,-14.53 0.86084,-3.4645 1.159,-6.6382 1.159,-10.15 0.86084,-0.28098 1.4544,0.28098 2.017,1.1478 0.58514,2.9152 3.1986,3.5011 4.0678,5.5382 4.0903,1.1591 8.4507,0.26834 12.811,0.85419 0,1.78 3.4742,1.183 2.906,2.904 l 2.0452,0 c 0.56824,-3.1849 -0.32355,-6.3811 -0.88617,-9.2963 -2.9059,-4.3314 -8.1553,-7.2353 -9.0245,-12.75 -2.0396,-1.7674 -3.7612,-3.1962 -5.2156,-5.2094 1.1534,-0.89069 3.176,-0.32874 4.653,0.53809 l -0.5851,0.5858 c 1.1478,0.29224 2.6303,0.29224 3.7612,1.1816 l -0.5626,0.2697 c 2.6162,1.4513 6.383,1.1703 9.289,0.3161 3.7921,-0.3161 4.3801,2.904 8.1525,2.3181 1.1619,-0.62097 3.4827,-0.29221 3.207,-1.7674 l 9.5815,-0.8668 c 0.89178,-2.3069 -1.4459,-3.7933 -2.017,-5.4904 l 0.27008,0 c -2.8835,-1.1942 -5.7895,-2.623 -8.1328,-3.2201 -1.4544,-1.4513 -2.9088,-2.5752 -4.0931,-4.3552 -1.159,0 -2.5881,-0.29224 -3.7612,-0.59708 -0.30377,-0.84299 -0.86646,-2.0132 0.2926,-3.1611 3.4686,-0.86685 7.5617,-0.59711 10.766,0.55075 0,1.1942 2.6134,0.86539 3.477,2.6103 5.5194,1.78 8.1525,-3.442 11.621,-4.0279 -0.28693,0 -0.55701,0 -0.86078,-0.29221 1.1646,-1.183 3.2098,-0.32733 4.636,-1.183 -1.1562,-1.1591 -0.85803,-3.7455 -3.1845,-3.4645 -0.87769,-1.7449 -4.0593,-0.87805 -5.8063,-1.7449 l 0.5908,-0.5971 -3.7977,-1.1591 c -0.58514,-1.7449 -2.9116,-3.1723 -3.1986,-4.063 -2.0536,-0.88931 -2.6162,-2.6342 -4.9539,-2.9026 0,-0.58585 0.31787,-0.58585 -0.26446,-1.1591 2.3096,-1.1478 5.2184,-0.25851 7.5505,-0.58585 0.57391,-2.0484 3.4799,-1.1591 3.4799,-2.3069 3.4996,-1.7547 6.9935,-2.9026 10.198,-2.0484 0.86932,1.4513 4.3379,0.87808 6.3887,0.29364 l -0.2982,-0.2936 2.9003,-0.8542 c -0.56824,-1.7674 1.4544,-1.4864 0.86646,-2.9152 -0.56262,0 -1.7441,0 -2.0142,-1.1591 l 0.2701,-0.3161 c -4.0678,-2.0132 -7.8431,-3.7582 -10.749,-6.9403 -6.6925,-1.773 -13.669,1.1338 -19.757,-0.59711 -1.1675,-1.7505 -4.6586,-1.4456 -6.9794,-2.0371 0,-0.29224 0.30383,-0.29224 0.57385,-0.29224 -3.7921,-0.57318 -7.5673,0.8837 -10.473,2.0371 l 0.29822,0 c -2.0283,0 -3.7725,1.7533 -5.5194,0.59708 2.0142,-2.6342 3.7612,-4.9523 6.6925,-5.8009 1.7328,-1.7506 5.2099,-3.5011 8.1103,-4.0687 l -0.2701,-0.3161 c 6.3999,-1.7266 14.536,0.3161 21.239,-1.4344 l -0.2926,-0.2922 4.0678,-1.1773 -0.3038,-0.281 c 2.6134,-0.85983 3.4799,-2.3055 5.2493,-3.7638 4.0454,-0.28659 7.5364,1.1296 11.334,0.86685 2.3209,-1.7505 5.8148,-2.0203 6.9766,-4.6545 2.0142,-0.8837 4.6586,-0.5676 6.6728,-0.26276 3.207,0.85983 3.207,-2.3476 6.113,-2.3476 0,-1.1759 1.4544,-1.4457 2.017,-2.5991 -4.0679,-1.7449 -7.829,-4.9523 -12.189,-7.2817 -2.0452,-2.2956 -6.3886,-0.57462 -9.9051,-1.4344 0,-2.3294 -2.2927,-0.29224 -2.9059,-2.0371 3.4911,0.5676 6.4224,-2.0203 9.6041,-2.0203 0,-0.3161 0.29822,-0.59006 0,-0.8837 3.207,-2.0132 6.3999,-3.7638 9.5956,-3.4715 2.3321,0.2641 7.2776,4.0391 11.053,2.6117 -0.29254,-1.7505 2.0396,-0.86685 2.906,-1.7505 -0.56824,-0.86121 1.1619,-1.7506 0.85522,-2.623 -1.4235,-0.28101 -3.1986,-0.28101 -4.6304,-0.87247 -0.59076,-0.56198 -2.906,-2.3181 -4.0791,-3.1723 0,-0.30487 -0.30377,-0.8837 0,-1.1534 -3.4799,0.56198 -2.6134,-2.6454 -5.8232,-2.6454 0,0 0.0703,-0.059 0.21094,-0.11099 -3.3589,-1.0186 -6.4533,-1.0424 -10.088,-1.0424 -3.4742,-2.904 -7.8599,-6.0931 -12.513,-7.2466 0.88617,-3.2088 4.653,-0.87808 7.2917,-1.1886 -0.29822,0.31049 -0.29822,0.31049 -0.59918,0.31049 2.3461,1.4569 5.8204,0.87808 8.4282,0.57321 4.3604,-1.7505 7.5729,-4.9172 12.226,-4.3496 1.1619,2.3125 5.2212,0.29361 6.1074,2.5991 4.3435,0.86682 8.9908,0 11.902,-2.0371 0.29822,-1.1296 2.3378,-2.2942 2.0452,-3.4716 -4.0622,-0.29221 -6.9738,-1.7266 -10.172,-3.1948 -1.7301,-2.3181 -4.6614,-3.1793 -6.1074,-5.8135 -1.1618,-0.85419 -3.4827,0.29926 -3.7753,-1.7266 l -17.442,-0.5802 c -3.2126,-1.7491 -5.5194,-3.7666 -9.0189,-3.7666 0,-0.30487 0.59076,-0.30487 0.85516,-0.30487 -1.4235,-1.152 -4.3322,-0.58164 -6.0764,-1.4681 l 0.8664,-0.5718 c -2.92,-0.8598 -6.4111,-0.2894 -9.32,-1.152 1.4769,-2.9012 5.8148,-2.9012 7.8543,-4.6489 4.0678,-0.29224 8.4563,-0.29224 12.226,0 2.6134,2.6117 7.829,0.57037 10.473,2.6117 6.6756,0.8598 12.482,0.58164 19.464,0.28943 1.4515,-1.1534 4.065,-2.0175 5.8063,-3.1934 0.8974,-1.4316 1.19,-2.9152 2.9144,-3.7764 1.7442,-3.7638 0.2926,-10.162 -2.3461,-13.355 -0.5683,-3.2046 -5.193,-4.9172 -4.3295,-8.7189 5.2212,-0.86121 9.5816,3.8017 14.527,1.4569 0,-0.27679 -0.58514,-0.27679 -0.58514,-0.5704 l 2.906,-0.8865 c -1.1591,-1.1534 0.59918,-1.4428 0.86926,-2.0132 z"
       style="fill:#000000"
       inkscape:connector-curvature="0" />
  </g>
</svg>
