<?xml version="1.0" encoding="utf-8"?>
<!-- Generator: Adobe Illustrator 19.1.0, SVG Export Plug-In . SVG Version: 6.00 Build 0)  -->
<svg version="1.1" id="Calque_1" xmlns="http://www.w3.org/2000/svg" xmlns:xlink="http://www.w3.org/1999/xlink" x="0px" y="0px"
	 viewBox="0 0 48.9 33.6" style="enable-background:new 0 0 48.9 33.6;" xml:space="preserve">
<path d="M0,28.6c0,0.2,0.4,0.3,0.5,0.1c0.2-0.1,0.5-0.3,0.6,0c0.1,0.3,0.2,0.8,0.1,1.1c-0.1,0.3-0.3,0.8-0.2,0.9
	c0.1,0.1,0.2,0.1,0.3,0.1c0.1,0.1,0,0.3,0,0.5c0,0.2,0.2,0.3,0.3,0.3s0.3-0.2,0.4-0.1c0.2,0.1,0.3-0.3,0.7-0.8
	c0.4-0.5,0.2-0.8,0-1.7c-0.1-0.9,0.1-1.6,0.2-2.2c0.1-0.6,0.3-1.8,0.6-2.2c0.3-0.4,1-0.3,1.5-0.3c0.5,0,3.4-0.1,4-0.3
	c0.7-0.1,2-0.8,2.9-1.1s2-0.7,2-0.7c0.1,0.1,0.6,0.6,0.4,1c-0.2,0.4-0.3,2.9-0.3,3.2c0,0.3-0.4,3.3-0.8,3.9c-0.4,0.7-0.1,1.1,0,1.4
	c0.1,0.3,1,0.8,1.4,1.2c0.5,0.3,1.3,0.6,1.5,0.6s5.9,0,6.4,0c0.5,0,0.5-0.2,0.6-0.2c0.1,0,0.7-0.1,1.2-0.2c0.5-0.1,0.3-0.3,0.3-0.4
	c0-0.1-0.8-0.2-1-0.3c-0.2-0.1-1.3-0.3-1.4-0.4c-0.1-0.2-0.1-0.8,0-1.1c0.1-0.4,0.2-0.8,0.5-1.1c0.3-0.3,0.4-0.7,0.6-1
	c0.2-0.4,1.5-3.3,2.1-4.2c0.6-0.9,0.8-1.3,1.2-1.9s0.7-1.2,0.7-1.5c0.1-0.3,0.6-1.1,0.9-1.4c0.3-0.3,0.8-0.9,1.9-1.8
	c1.1-0.8,2.1-0.4,2.5-0.7s1.1-1.9,1.4-2c0.2-0.1,0.8-0.5,1.1-0.6c0.3-0.1,0.4,0.5,0.5,1.1c0.1,0.5,1,2.8,1.1,3.5
	c0.1,0.6,0.2,1.5,0.6,2.4c0.4,0.9,3.1,6,3.4,6.7s1.1,2.1,1.1,2.1s-0.1,0.4-0.1,0.7c0,0.3,0.6,0.8,0.8,0.9c0.1,0,0.2,0.1,0.2,0.3
	c0,0.2,0.3,0.5,0.5,0.7c0.2,0.2,0.5,0.2,0.5,0.3c0.1,0.1,0.3,0.2,0.5,0.2c0.2,0,0.4-0.3,0.6-0.2c0.3,0.1,1.2,0.2,2.6,0.2
	c1.4,0,1.3-0.2,1.4-0.3c0.1-0.1-0.2-0.3-0.5-0.3s-1.9-0.4-2.4-0.6c-0.5-0.2-1.2-1-1.4-1.3c-0.3-0.3-0.6-1.4-0.8-1.8
	c-0.2-0.4-1-3.6-1.2-4.1c-0.2-0.5-0.8-2-0.9-2.2c-0.1-0.2-0.3-2.1-0.6-3c-0.3-0.9-0.8-2.1-1.1-2.4c-0.2-0.3-0.1-0.7-0.1-1.1
	c0-0.4,0.1-2.9,0.1-3.2c-0.1-0.3-0.6-2.6-0.7-2.8c0-0.2-0.4-0.4-0.4-0.4l0.3,0c0,0,0.3,0.2,0.9,0.4c0.5,0.2,1.2,0.2,1.5,0.2
	c0.3,0,0.6-0.4,0.7-0.6c0.1-0.2,0-0.3,0-0.3s0.5,0.1,0.6-0.1c0.1-0.2,0.2-0.6,0.4-0.6c0.1,0,0.3-0.1,0.3-0.3
	c0.1-0.3-0.1-0.5-0.3-0.8c-0.3-0.3-1.8-2.4-2-2.8c-0.2-0.4,0.2-0.5,0.5-0.6c0.3-0.1,0.3-0.3,0.3-0.5s-0.2-0.7-0.6-1
	C41,2.5,38,0.5,37.2,0.2c-0.8-0.3-1.3-0.2-2.3,0c-1,0.2-2.5,1.1-3,1.5c-0.5,0.4-1.2,1.1-1.8,0.9c-0.6-0.2-1.1-0.3-1.6-0.1
	c-0.5,0.2-1.1,1.9-1.2,2s-0.7,0.1-1.1,0.1c-0.4,0-3.7,0.5-4.9,0.6c-1.1,0.1-4.3,0.9-5.6,1.1S14,6.1,13.5,5.9s-1.7-1.8-2.8-2.5
	C9.6,2.7,8.9,2.8,8.9,2.8c-3,0-4.4,5.8-4.7,7.4c-0.4,1.6-1.5,6.1-1.7,6.5c-0.2,0.4-1.3,1.9-1.3,2.3c-0.1,0.9,0.4,2,0.8,2
	c0.4,0,0.7-0.7,1.7-1.5c1-0.8,0.7-2.1,0.7-2.7c-0.1-0.5,0.1-0.6,0.3-1.6c0.2-1,0.8-3.9,1.2-5.9c0.4-2,1.6-3.2,2.1-3.7
	C8.5,5.1,9,5.3,9.8,6c0.8,0.7,1.3,2.2,1.3,2.2c-0.2,0.1-1,1.3-1.5,2.6c-0.4,1.3-0.3,3.9,0.1,4.7c0.4,0.8,0.6,1.3,0.5,1.4
	c-0.1,0.1-0.1,2.1-0.1,2.1s-0.4,0.1-1,0.5c-0.6,0.4-3.3,1.5-3.9,1.7s-2.1,0-2.7,0.2C2,21.4,1.9,22,1.5,22.8
	c-0.3,0.7-0.6,1.7-0.6,2.1c0.1,0.4,0.3,0.6,0,0.8c-0.2,0.2-0.4,0.8-0.5,1.1c-0.1,0.3,0,0.8-0.2,1C0.2,27.9,0,28.4,0,28.6z
	 M17.6,29.1c0.5-0.7,1-3.7,1.5-5.7c0.5-2,0.7-3.6,0.6-4.2c-0.1-0.6-1-1.5-1-1.7c0-0.2-0.3-0.8-0.3-0.8s0.8,0.5,2,0.9s3.1,0.6,4,0.6
	c0,0-3.5,9.2-4.1,10.3c-0.6,1.1-0.4,1.3-0.5,2.3c-0.1,1-0.2,1.3-0.3,1.3c-0.2,0-0.7-0.5-1.7-0.7c-1-0.2-1-0.6-1.1-1
	C16.6,30.1,17.1,29.7,17.6,29.1z"/>
</svg>
