<?xml version="1.0" encoding="utf-8"?>
<!-- Generator: Adobe Illustrator 19.1.0, SVG Export Plug-In . SVG Version: 6.00 Build 0)  -->
<svg version="1.1" id="Calque_1" xmlns="http://www.w3.org/2000/svg" xmlns:xlink="http://www.w3.org/1999/xlink" x="0px" y="0px"
	 viewBox="0 0 92.4 50.7" style="enable-background:new 0 0 92.4 50.7;" xml:space="preserve">
<path d="M86.7,13.5c-0.1,0.6,2.5,1.2,3.1,2.1c0.6,0.9,0.9,2.6,1.2,3.1c0.3,0.6,1.3,3.1,1.4,3.2c0.1,0.2-0.2,0.9-0.6,1.2
	s-0.5,0.5-0.8,0.9c-0.3,0.4-0.8,0.9-1.5,1c-0.7,0.1-2.1-0.1-2.8-0.7c-0.7-0.5-2.2-1.5-3.2-1.6c-0.9-0.1-1.6-0.2-2.1,0.2
	c-0.5,0.3-1.6,1.2-2.3,1.5c-0.7,0.2-1.6,0.5-1.8,0.7c-0.3,0.2-0.3,0.3-0.4,1.4c-0.1,1.1,0.1,3.4,0,3.8s0.2,2.1,0.7,3.6
	c0.5,1.4,2.1,4.7,2.7,5.7c0.6,1,2.4,3.9,2.7,4.5s0.1,0.5,0.5,1.1c0.4,0.6,0.5,1.3,0.7,1.5c0.2,0.2,1.1,0.5,1.3,0.9s0.7,0.7,0.7,0.7
	s1-0.3,1.5,0c0.5,0.3,1.5,0.6,1.5,1.1c0.1,0.5,0.2,1.2-0.7,1.4h-3.1c0,0-2.3-0.5-2.7-0.7c-0.4-0.2-2.4-2.4-2.9-3.2
	c-0.5-0.8-2-2.8-2.3-3c-0.4-0.2-4.4-5.3-5.3-6.1s-3.1-3.6-3.4-4.1s-1.4-2-1.4-2s-0.7,0.2-2.1,0.5c-1.4,0.3-2.1,0.7-2.3,0.9
	c-0.2,0.2-0.9,1.7-1.3,2.4S60,38.6,59.8,39c-0.2,0.4-1,4.3-1.3,4.8s-0.9,1-1,1.3s-0.2,2.3-0.2,2.3s0.7,0.2,1.2,0.4s1.7,0.3,2,0.8
	c0.3,0.5,0.7,1.7-0.4,2.1c0,0-4.7,0-5.3,0S54.1,49.8,54,49s0.1-2.4,0-2.6c-0.1-0.2-0.2-0.9-0.1-1.2c0.1-0.3,0.5-3.7,0.7-4.3
	s0.2-1.8,0.2-2.1c0-0.3,0.7-3.3,0.9-4.4c0.3-1.1,0.8-2.9,0.8-2.9s-0.6-0.4-1.6-0.5s-3.4,0.4-4.7,0.2c-1.3-0.2-4.5-0.9-5.8-1.4
	c-1.3-0.6-5.9-2.4-5.9-2.4s-0.1,0.3-0.4,1c-0.3,0.7-1.3,2.8-2.3,4.3c-1,1.5-2.3,3.6-2.4,3.9c-0.2,0.3-0.6,1.3-1.1,1.8
	c-0.5,0.5-0.9,1-1.3,1.9c-0.4,0.9-1,1.6-0.8,2.4c0.2,0.8,0.1,3.6,1,4.4s1.2,1.4,1.7,1.3c0.5-0.1,1.6-0.5,2.1-0.3
	c0.5,0.2,1.3,0.5,1.2,1.2c-0.1,0.7,0,1.4-1.9,1.4s-3-0.2-3.2-0.2c-0.2,0-1.7-1.3-2.4-1.8c-0.7-0.5-1.5-3.3-1.6-3.6
	c-0.1-0.3-1.9-3.5-2.1-4c-0.2-0.6-0.5-0.8,0-1.3c0.5-0.6,1.4-1.8,1.5-2.7c0.2-0.9,0.4-5,0.4-5s-1.8,1-2.4,1.3
	c-0.7,0.4-2.6,1.6-3.1,2c-0.6,0.4-1.4,1-2.6,1.4c-1.2,0.4-1.9,0.8-2.3,1.2c-0.4,0.4-2.8,2.8-3.2,3.3c-0.5,0.5-2.7,4.9-2.7,5.2
	c-0.1,0.4-0.1,1.6,0,2.1s0.4,0.8,0.8,1.1s1.1,0.8,0.3,1c-0.8,0.2-1.7,0.1-2.4-0.2c-0.7-0.3-1.7-1-1.7-1.2c0-0.2-0.1-1.2,0-1.5
	s-0.1-1,0-1.4s2.5-6.6,3.6-8.2s2.4-4,2.6-4.3c0.2-0.4,0.5-0.5,1.1-0.6s1.5-0.6,2.2-1.4c0.7-0.9,3.6-4.5,4.1-5.9
	c0.6-1.4,1.3-4.3,1.4-5.1s1.2-2,1.1-2.3c-0.1-0.3-1.1-0.1-2,0.4c-0.9,0.4-2.7,1.1-5.3,1.3s-6.6-0.4-8.4-1.4
	c-2.6-1.5-4.9-3.7-5.9-5.7s-2-4.4-1.9-7.6C0.1,2.6,1,0.3,3.9,0s4.2,1.9,4.3,2.8c0.1,0.9,0.3,2.1-0.4,3.1s-1,1.2-1,1.2S6.2,6.7,6,6.1
	C5.8,5.6,5.9,4.3,5.6,3.8S5,2.9,4.3,3.1S2.8,4.7,2.7,5.5C2.6,6.3,2.6,7.9,3,9.4c0.4,1.3,1.8,3.5,3.8,4.9s4.3,3.2,8.7,2.4
	s9.5-3.4,10.9-3.9c1.4-0.5,5-1,5.9-1.1c0.9-0.1,4.7-0.3,5.6-0.1c0.9,0.2,4.3,1.4,5.6,1.5c1.3,0.1,8.4,0.5,9.6,0.7s7.9,1,8.6,1.1
	c0.7,0.1,1.7,0.1,2.2-0.4c0.5-0.5,0.6-0.9,1-0.9c0.4,0,1.2,0,1.4-0.1c0.3-0.1,0.7-0.5,0.9-0.4s0.9,0,1.3,0.1
	c0.4,0.1,1.3,0.6,1.6,0.7c0.3,0.1,0.3,0.5,2.4,0.1s5.4-1.3,7-1.5c1.6-0.3,4.3-0.4,4.3-0.4s0.1-0.4,0.5-0.3c0.4,0.1,0.2,0.4,0.2,0.4
	s0.7-0.9,0.9-1c0.3-0.1,0.6-0.4,0.8,0.2C86.5,12.1,86.8,12.9,86.7,13.5z"/>
</svg>
